<?xml version="1.0" encoding="UTF-8" standalone="no"?>
<!-- Generator: Gravit.io -->
<svg xmlns="http://www.w3.org/2000/svg" xmlns:xlink="http://www.w3.org/1999/xlink" style="isolation:isolate" viewBox="0 0 280 280" width="280" height="280"><defs><clipPath id="_clipPath_yz8jSdQrQbzXN5gAvNh5Z7Zkyt1hmnYu"><rect width="280" height="280"/></clipPath></defs><g clip-path="url(#_clipPath_yz8jSdQrQbzXN5gAvNh5Z7Zkyt1hmnYu)"><circle vector-effect="non-scaling-stroke" cx="140" cy="140" r="140" fill="rgb(2,51,64)"/><path d=" M 250.811 119.122 L 234.093 102.164 L 234.065 76.62 C 233.679 68.508 230.068 60.612 224.244 55.06 C 218.514 49.45 210.395 46.223 202.597 46.26 L 178.955 46.26 L 161.132 28.217 C 155.205 22.759 147.147 19.763 139.158 20.015 C 131.197 20.157 123.209 23.696 117.718 29.317 L 100.995 46.278 L 75.817 46.304 C 67.82 46.695 60.036 50.358 54.563 56.266 C 49.033 62.12 45.855 70.214 45.888 78.323 L 45.888 102.207 L 28.103 120.287 C 22.722 126.298 19.767 134.472 20.014 142.574 C 20.158 150.651 23.647 158.755 29.188 164.325 L 45.906 181.296 L 45.934 206.83 C 46.319 214.941 49.931 222.838 55.755 228.391 C 61.528 234.002 69.507 237.228 77.501 237.191 L 102.208 237.199 C 108.216 242.638 114.288 248.029 120.447 253.453 C 126.241 258.163 133.645 260.418 140.748 259.936 C 147.859 259.517 154.715 256.405 159.643 251.315 C 164.554 246.333 169.556 241.445 174.633 236.634 C 184.406 236.119 194.168 235.464 204.059 234.754 C 211.443 233.928 218.247 230.21 222.936 224.776 C 227.671 219.377 230.348 212.26 230.287 205.125 C 230.287 198.342 230.411 191.56 230.631 184.779 L 251.897 163.16 C 257.28 157.149 260.233 148.975 259.986 140.871 C 259.839 132.798 256.35 124.694 250.811 119.122 Z " fill="none" vector-effect="non-scaling-stroke" stroke-width="1" stroke="rgb(238,238,238)" stroke-linejoin="miter" stroke-linecap="butt" stroke-miterlimit="4"/><path d=" M 95.421 199.805 L 92.485 199.805 L 92.485 217.031 L 84.25 217.031 L 84.25 172.771 L 95.028 172.771 L 95.028 172.771 Q 101.87 172.771 105.124 176.01 L 105.124 176.01 L 105.124 176.01 Q 108.378 179.25 108.378 185.91 L 108.378 185.91 L 108.378 185.91 Q 108.378 194.296 102.717 197.626 L 102.717 197.626 L 111.224 217.031 L 102.415 217.031 L 95.421 199.805 Z  M 92.485 179.885 L 92.485 192.721 L 94.604 192.721 L 94.604 192.721 Q 97.51 192.721 98.782 191.071 L 98.782 191.071 L 98.782 191.071 Q 100.053 189.422 100.053 186.152 L 100.053 186.152 L 100.053 186.152 Q 100.053 182.761 98.706 181.323 L 98.706 181.323 L 98.706 181.323 Q 97.359 179.885 94.543 179.885 L 94.543 179.885 L 92.485 179.885 Z  M 144.464 217.031 L 136.2 217.031 L 133.657 205.86 L 122.123 205.86 L 119.58 217.031 L 111.345 217.031 L 122.304 172.59 L 133.475 172.59 L 144.464 217.031 Z  M 123.757 198.564 L 132.113 198.564 L 129.751 188.271 L 129.751 188.271 Q 129.54 187.333 128.798 183.564 L 128.798 183.564 L 128.798 183.564 Q 128.056 179.795 127.905 178.523 L 127.905 178.523 L 127.905 178.523 Q 127.511 181.127 126.906 184.26 L 126.906 184.26 L 126.906 184.26 Q 126.3 187.393 123.757 198.564 L 123.757 198.564 Z  M 161.962 180.007 L 161.962 217.031 L 153.758 217.031 L 153.758 180.007 L 145.282 180.007 L 145.282 172.771 L 170.439 172.771 L 170.439 180.007 L 161.962 180.007 Z  M 195.112 209.826 L 195.112 217.031 L 175.162 217.031 L 175.162 172.771 L 195.112 172.771 L 195.112 179.885 L 183.396 179.885 L 183.396 190.421 L 194.264 190.421 L 194.264 197.565 L 183.396 197.565 L 183.396 209.826 L 195.112 209.826 Z  M 156.438 162.15 L 147.386 162.15 L 145.236 159.062 L 145.236 159.062 Q 141.119 162.755 135.004 162.755 L 135.004 162.755 L 135.004 162.755 Q 129.191 162.755 125.982 159.455 L 125.982 159.455 L 125.982 159.455 Q 122.773 156.156 122.773 150.313 L 122.773 150.313 L 122.773 150.313 Q 122.773 142.805 130.16 137.719 L 130.16 137.719 L 130.16 137.719 Q 127.829 134.117 127.072 132.028 L 127.072 132.028 L 127.072 132.028 Q 126.315 129.939 126.315 127.608 L 126.315 127.608 L 126.315 127.608 Q 126.315 122.885 129.252 120.07 L 129.252 120.07 L 129.252 120.07 Q 132.188 117.254 136.972 117.254 L 136.972 117.254 L 136.972 117.254 Q 141.573 117.254 144.298 119.873 L 144.298 119.873 L 144.298 119.873 Q 147.022 122.492 147.022 127.123 L 147.022 127.123 L 147.022 127.123 Q 147.022 130.302 145.357 133.163 L 145.357 133.163 L 145.357 133.163 Q 143.692 136.024 139.787 138.96 L 139.787 138.96 L 145.963 147.649 L 145.963 147.649 Q 146.992 145.772 147.567 143.471 L 147.567 143.471 L 147.567 143.471 Q 148.143 141.17 148.566 138.9 L 148.566 138.9 L 155.59 138.9 L 155.59 138.9 Q 154.439 147.376 150.564 153.976 L 150.564 153.976 L 156.438 162.15 Z  M 130.917 149.556 L 130.917 149.556 L 130.917 149.556 Q 130.917 152.371 132.249 153.976 L 132.249 153.976 L 132.249 153.976 Q 133.581 155.58 135.882 155.58 L 135.882 155.58 L 135.882 155.58 Q 138.909 155.58 141.21 153.34 L 141.21 153.34 L 133.944 142.866 L 133.944 142.866 Q 130.917 145.59 130.917 149.556 Z  M 139.575 127.85 L 139.575 127.85 L 139.575 127.85 Q 139.575 125.882 138.773 124.989 L 138.773 124.989 L 138.773 124.989 Q 137.971 124.096 136.851 124.096 L 136.851 124.096 L 136.851 124.096 Q 135.458 124.096 134.641 125.08 L 134.641 125.08 L 134.641 125.08 Q 133.823 126.064 133.823 127.941 L 133.823 127.941 L 133.823 127.941 Q 133.823 129.606 134.535 131.014 L 134.535 131.014 L 134.535 131.014 Q 135.246 132.421 136.306 133.874 L 136.306 133.874 L 136.306 133.874 Q 138.152 132.452 138.864 131.119 L 138.864 131.119 L 138.864 131.119 Q 139.575 129.787 139.575 127.85 Z  M 95.558 90.043 L 101.279 63.009 L 109.574 63.009 L 99.16 107.269 L 88.686 107.269 L 78.332 63.009 L 86.627 63.009 L 92.409 90.043 L 92.409 90.043 Q 93.196 93.494 93.953 99.942 L 93.953 99.942 L 93.953 99.942 Q 94.589 94.463 95.558 90.043 L 95.558 90.043 Z  M 143.935 85.078 L 143.935 85.078 L 143.935 85.078 Q 143.935 96.067 139.817 101.971 L 139.817 101.971 L 139.817 101.971 Q 135.7 107.874 128.041 107.874 L 128.041 107.874 L 128.041 107.874 Q 120.352 107.874 116.234 101.986 L 116.234 101.986 L 116.234 101.986 Q 112.117 96.098 112.117 85.018 L 112.117 85.018 L 112.117 85.018 Q 112.117 74.028 116.234 68.17 L 116.234 68.17 L 116.234 68.17 Q 120.352 62.313 128.102 62.313 L 128.102 62.313 L 128.102 62.313 Q 135.761 62.313 139.848 68.201 L 139.848 68.201 L 139.848 68.201 Q 143.935 74.089 143.935 85.078 Z  M 120.533 85.078 L 120.533 85.078 L 120.533 85.078 Q 120.533 92.646 122.44 96.612 L 122.44 96.612 L 122.44 96.612 Q 124.348 100.578 128.041 100.578 L 128.041 100.578 L 128.041 100.578 Q 135.488 100.578 135.488 85.078 L 135.488 85.078 L 135.488 85.078 Q 135.488 69.578 128.102 69.578 L 128.102 69.578 L 128.102 69.578 Q 124.348 69.578 122.44 73.529 L 122.44 73.529 L 122.44 73.529 Q 120.533 77.479 120.533 85.078 Z  M 163.976 70.244 L 163.976 107.269 L 155.771 107.269 L 155.771 70.244 L 147.295 70.244 L 147.295 63.009 L 172.452 63.009 L 172.452 70.244 L 163.976 70.244 Z  M 197.125 100.063 L 197.125 107.269 L 177.175 107.269 L 177.175 63.009 L 197.125 63.009 L 197.125 70.123 L 185.409 70.123 L 185.409 80.658 L 196.277 80.658 L 196.277 87.803 L 185.409 87.803 L 185.409 100.063 L 197.125 100.063 Z " fill-rule="evenodd" fill="rgb(238,238,238)"/></g></svg>