<?xml version="1.0" standalone="no"?><!-- Generator: Gravit.io --><svg xmlns="http://www.w3.org/2000/svg" xmlns:xlink="http://www.w3.org/1999/xlink" style="isolation:isolate" viewBox="0 0 300 370.968" width="300" height="370.968"><defs><clipPath id="_clipPath_NZLYi0z0LycprUku0HyZULp8Xqrl0NZy"><rect width="300" height="370.968"/></clipPath></defs><g clip-path="url(#_clipPath_NZLYi0z0LycprUku0HyZULp8Xqrl0NZy)"><rect x="0" y="0" width="300" height="370.968" transform="matrix(1,0,0,1,0,0)" fill="none"/><path d=" M 32.422 79.127 L 32.422 79.127 L 32.422 79.127 Q 32.422 82.33 30.805 84.033 L 30.805 84.033 L 30.805 84.033 Q 29.188 85.736 26.141 85.736 L 26.141 85.736 L 26.141 85.736 Q 23.156 85.736 21.063 84.564 L 21.063 84.564 L 21.063 80.361 L 21.063 80.361 Q 23.625 82.033 25.766 82.033 L 25.766 82.033 L 25.766 82.033 Q 26.984 82.033 27.602 81.361 L 27.602 81.361 L 27.602 81.361 Q 28.219 80.689 28.219 79.533 L 28.219 79.533 L 28.219 79.533 Q 28.219 78.392 27.484 77.447 L 27.484 77.447 L 27.484 77.447 Q 26.75 76.502 25.063 75.345 L 25.063 75.345 L 25.063 75.345 Q 23.594 74.33 22.836 73.4 L 22.836 73.4 L 22.836 73.4 Q 22.078 72.47 21.664 71.314 L 21.664 71.314 L 21.664 71.314 Q 21.25 70.158 21.25 68.627 L 21.25 68.627 L 21.25 68.627 Q 21.25 65.689 22.883 63.97 L 22.883 63.97 L 22.883 63.97 Q 24.516 62.252 27.266 62.252 L 27.266 62.252 L 27.266 62.252 Q 29.891 62.252 32.313 63.72 L 32.313 63.72 L 30.906 67.127 L 30.906 67.127 Q 30.156 66.689 29.336 66.345 L 29.336 66.345 L 29.336 66.345 Q 28.516 66.002 27.578 66.002 L 27.578 66.002 L 27.578 66.002 Q 26.547 66.002 25.992 66.681 L 25.992 66.681 L 25.992 66.681 Q 25.438 67.361 25.438 68.533 L 25.438 68.533 L 25.438 68.533 Q 25.438 69.689 26.102 70.548 L 26.102 70.548 L 26.102 70.548 Q 26.766 71.408 28.422 72.502 L 28.422 72.502 L 28.422 72.502 Q 30.656 74.002 31.539 75.564 L 31.539 75.564 L 31.539 75.564 Q 32.422 77.127 32.422 79.127 Z  M 45.063 62.58 L 49.281 62.58 L 49.281 77.361 L 49.281 77.361 Q 49.281 81.439 47.438 83.588 L 47.438 83.588 L 47.438 83.588 Q 45.594 85.736 42.109 85.736 L 42.109 85.736 L 42.109 85.736 Q 38.703 85.736 36.922 83.603 L 36.922 83.603 L 36.922 83.603 Q 35.141 81.47 35.141 77.298 L 35.141 77.298 L 35.141 62.58 L 39.359 62.58 L 39.359 77.611 L 39.359 77.611 Q 39.359 81.97 42.25 81.97 L 42.25 81.97 L 42.25 81.97 Q 43.594 81.97 44.328 80.861 L 44.328 80.861 L 44.328 80.861 Q 45.063 79.752 45.063 77.705 L 45.063 77.705 L 45.063 62.58 L 45.063 62.58 Z  M 65.672 69.611 L 65.672 69.611 L 65.672 69.611 Q 65.672 73.252 63.836 75.197 L 63.836 75.197 L 63.836 75.197 Q 62 77.142 58.531 77.142 L 58.531 77.142 L 57.469 77.142 L 57.469 85.423 L 53.219 85.423 L 53.219 62.58 L 59.016 62.58 L 59.016 62.58 Q 65.672 62.58 65.672 69.611 Z  M 57.469 66.252 L 57.469 73.455 L 58.281 73.455 L 58.281 73.455 Q 59.844 73.455 60.609 72.595 L 60.609 72.595 L 60.609 72.595 Q 61.375 71.736 61.375 69.783 L 61.375 69.783 L 61.375 69.783 Q 61.375 67.986 60.672 67.119 L 60.672 67.119 L 60.672 67.119 Q 59.969 66.252 58.5 66.252 L 58.5 66.252 L 57.469 66.252 L 57.469 66.252 Z  M 78.844 81.705 L 78.844 85.423 L 68.547 85.423 L 68.547 62.58 L 78.844 62.58 L 78.844 66.252 L 72.797 66.252 L 72.797 71.689 L 78.406 71.689 L 78.406 75.377 L 72.797 75.377 L 72.797 81.705 L 78.844 81.705 L 78.844 81.705 Z  M 87.938 76.533 L 86.422 76.533 L 86.422 85.423 L 82.172 85.423 L 82.172 62.58 L 87.734 62.58 L 87.734 62.58 Q 91.266 62.58 92.945 64.252 L 92.945 64.252 L 92.945 64.252 Q 94.625 65.923 94.625 69.361 L 94.625 69.361 L 94.625 69.361 Q 94.625 73.689 91.703 75.408 L 91.703 75.408 L 96.094 85.423 L 91.547 85.423 L 87.938 76.533 L 87.938 76.533 Z  M 86.422 66.252 L 86.422 72.877 L 87.516 72.877 L 87.516 72.877 Q 89.016 72.877 89.672 72.025 L 89.672 72.025 L 89.672 72.025 Q 90.328 71.173 90.328 69.486 L 90.328 69.486 L 90.328 69.486 Q 90.328 67.736 89.633 66.994 L 89.633 66.994 L 89.633 66.994 Q 88.938 66.252 87.484 66.252 L 87.484 66.252 L 86.422 66.252 L 86.422 66.252 Z  M 112.281 62.58 L 112.281 85.423 L 108.031 85.423 L 108.031 75.408 L 102.422 75.408 L 102.422 85.423 L 98.172 85.423 L 98.172 62.58 L 102.422 62.58 L 102.422 71.658 L 108.031 71.658 L 108.031 62.58 L 112.281 62.58 L 112.281 62.58 Z  M 126.609 81.705 L 126.609 85.423 L 116.313 85.423 L 116.313 62.58 L 126.609 62.58 L 126.609 66.252 L 120.563 66.252 L 120.563 71.689 L 126.172 71.689 L 126.172 75.377 L 120.563 75.377 L 120.563 81.705 L 126.609 81.705 L 126.609 81.705 Z  M 135.703 76.533 L 134.188 76.533 L 134.188 85.423 L 129.938 85.423 L 129.938 62.58 L 135.5 62.58 L 135.5 62.58 Q 139.031 62.58 140.711 64.252 L 140.711 64.252 L 140.711 64.252 Q 142.391 65.923 142.391 69.361 L 142.391 69.361 L 142.391 69.361 Q 142.391 73.689 139.469 75.408 L 139.469 75.408 L 143.859 85.423 L 139.313 85.423 L 135.703 76.533 L 135.703 76.533 Z  M 134.188 66.252 L 134.188 72.877 L 135.281 72.877 L 135.281 72.877 Q 136.781 72.877 137.438 72.025 L 137.438 72.025 L 137.438 72.025 Q 138.094 71.173 138.094 69.486 L 138.094 69.486 L 138.094 69.486 Q 138.094 67.736 137.398 66.994 L 137.398 66.994 L 137.398 66.994 Q 136.703 66.252 135.25 66.252 L 135.25 66.252 L 134.188 66.252 L 134.188 66.252 Z  M 161.656 73.97 L 161.656 73.97 L 161.656 73.97 Q 161.656 79.642 159.531 82.689 L 159.531 82.689 L 159.531 82.689 Q 157.406 85.736 153.453 85.736 L 153.453 85.736 L 153.453 85.736 Q 149.484 85.736 147.359 82.697 L 147.359 82.697 L 147.359 82.697 Q 145.234 79.658 145.234 73.939 L 145.234 73.939 L 145.234 73.939 Q 145.234 68.267 147.359 65.244 L 147.359 65.244 L 147.359 65.244 Q 149.484 62.22 153.484 62.22 L 153.484 62.22 L 153.484 62.22 Q 157.438 62.22 159.547 65.259 L 159.547 65.259 L 159.547 65.259 Q 161.656 68.298 161.656 73.97 Z  M 149.578 73.97 L 149.578 73.97 L 149.578 73.97 Q 149.578 77.877 150.563 79.923 L 150.563 79.923 L 150.563 79.923 Q 151.547 81.97 153.453 81.97 L 153.453 81.97 L 153.453 81.97 Q 157.297 81.97 157.297 73.97 L 157.297 73.97 L 157.297 73.97 Q 157.297 65.97 153.484 65.97 L 153.484 65.97 L 153.484 65.97 Q 151.547 65.97 150.563 68.009 L 150.563 68.009 L 150.563 68.009 Q 149.578 70.048 149.578 73.97 Z  M 138.219 39.906 L 138.219 39.906 L 138.219 39.906 Q 138.219 43.109 136.602 44.813 L 136.602 44.813 L 136.602 44.813 Q 134.984 46.516 131.938 46.516 L 131.938 46.516 L 131.938 46.516 Q 128.953 46.516 126.859 45.344 L 126.859 45.344 L 126.859 41.141 L 126.859 41.141 Q 129.422 42.813 131.563 42.813 L 131.563 42.813 L 131.563 42.813 Q 132.781 42.813 133.398 42.141 L 133.398 42.141 L 133.398 42.141 Q 134.016 41.469 134.016 40.313 L 134.016 40.313 L 134.016 40.313 Q 134.016 39.172 133.281 38.227 L 133.281 38.227 L 133.281 38.227 Q 132.547 37.281 130.859 36.125 L 130.859 36.125 L 130.859 36.125 Q 129.391 35.109 128.633 34.18 L 128.633 34.18 L 128.633 34.18 Q 127.875 33.25 127.461 32.094 L 127.461 32.094 L 127.461 32.094 Q 127.047 30.938 127.047 29.406 L 127.047 29.406 L 127.047 29.406 Q 127.047 26.469 128.68 24.75 L 128.68 24.75 L 128.68 24.75 Q 130.313 23.031 133.063 23.031 L 133.063 23.031 L 133.063 23.031 Q 135.688 23.031 138.109 24.5 L 138.109 24.5 L 136.703 27.906 L 136.703 27.906 Q 135.953 27.469 135.133 27.125 L 135.133 27.125 L 135.133 27.125 Q 134.313 26.781 133.375 26.781 L 133.375 26.781 L 133.375 26.781 Q 132.344 26.781 131.789 27.461 L 131.789 27.461 L 131.789 27.461 Q 131.234 28.141 131.234 29.313 L 131.234 29.313 L 131.234 29.313 Q 131.234 30.469 131.898 31.328 L 131.898 31.328 L 131.898 31.328 Q 132.563 32.188 134.219 33.281 L 134.219 33.281 L 134.219 33.281 Q 136.453 34.781 137.336 36.344 L 137.336 36.344 L 137.336 36.344 Q 138.219 37.906 138.219 39.906 Z  M 148.047 27.094 L 148.047 46.203 L 143.813 46.203 L 143.813 27.094 L 139.438 27.094 L 139.438 23.359 L 152.422 23.359 L 152.422 27.094 L 148.047 27.094 L 148.047 27.094 Z  M 160.625 37.313 L 159.109 37.313 L 159.109 46.203 L 154.859 46.203 L 154.859 23.359 L 160.422 23.359 L 160.422 23.359 Q 163.953 23.359 165.633 25.031 L 165.633 25.031 L 165.633 25.031 Q 167.313 26.703 167.313 30.141 L 167.313 30.141 L 167.313 30.141 Q 167.313 34.469 164.391 36.188 L 164.391 36.188 L 168.781 46.203 L 164.234 46.203 L 160.625 37.313 L 160.625 37.313 Z  M 159.109 27.031 L 159.109 33.656 L 160.203 33.656 L 160.203 33.656 Q 161.703 33.656 162.359 32.805 L 162.359 32.805 L 162.359 32.805 Q 163.016 31.953 163.016 30.266 L 163.016 30.266 L 163.016 30.266 Q 163.016 28.516 162.32 27.773 L 162.32 27.773 L 162.32 27.773 Q 161.625 27.031 160.172 27.031 L 160.172 27.031 L 159.109 27.031 L 159.109 27.031 Z  M 186.578 34.75 L 186.578 34.75 L 186.578 34.75 Q 186.578 40.422 184.453 43.469 L 184.453 43.469 L 184.453 43.469 Q 182.328 46.516 178.375 46.516 L 178.375 46.516 L 178.375 46.516 Q 174.406 46.516 172.281 43.477 L 172.281 43.477 L 172.281 43.477 Q 170.156 40.438 170.156 34.719 L 170.156 34.719 L 170.156 34.719 Q 170.156 29.047 172.281 26.023 L 172.281 26.023 L 172.281 26.023 Q 174.406 23 178.406 23 L 178.406 23 L 178.406 23 Q 182.359 23 184.469 26.039 L 184.469 26.039 L 184.469 26.039 Q 186.578 29.078 186.578 34.75 Z  M 174.5 34.75 L 174.5 34.75 L 174.5 34.75 Q 174.5 38.656 175.484 40.703 L 175.484 40.703 L 175.484 40.703 Q 176.469 42.75 178.375 42.75 L 178.375 42.75 L 178.375 42.75 Q 182.219 42.75 182.219 34.75 L 182.219 34.75 L 182.219 34.75 Q 182.219 26.75 178.406 26.75 L 178.406 26.75 L 178.406 26.75 Q 176.469 26.75 175.484 28.789 L 175.484 28.789 L 175.484 28.789 Q 174.5 30.828 174.5 34.75 Z  M 205.906 23.359 L 205.906 46.203 L 200.719 46.203 L 193.656 29.656 L 193.453 29.656 L 193.453 29.656 Q 193.844 31.547 193.844 33.719 L 193.844 33.719 L 193.844 46.203 L 189.906 46.203 L 189.906 23.359 L 195.125 23.359 L 202.125 39.734 L 202.297 39.734 L 202.297 39.734 Q 202 38.094 202 35.828 L 202 35.828 L 202 23.359 L 205.906 23.359 L 205.906 23.359 Z  M 216.844 37.281 L 216.844 33.531 L 223.828 33.531 L 223.828 45.25 L 223.828 45.25 Q 220.859 46.516 217.516 46.516 L 217.516 46.516 L 217.516 46.516 Q 213.531 46.516 211.383 43.484 L 211.383 43.484 L 211.383 43.484 Q 209.234 40.453 209.234 34.75 L 209.234 34.75 L 209.234 34.75 Q 209.234 29.25 211.695 26.141 L 211.695 26.141 L 211.695 26.141 Q 214.156 23.031 218.578 23.031 L 218.578 23.031 L 218.578 23.031 Q 221.313 23.031 223.797 24.438 L 223.797 24.438 L 222.453 27.906 L 222.453 27.906 Q 220.516 26.781 218.828 26.781 L 218.828 26.781 L 218.828 26.781 Q 216.406 26.781 214.992 28.945 L 214.992 28.945 L 214.992 28.945 Q 213.578 31.109 213.578 34.844 L 213.578 34.844 L 213.578 34.844 Q 213.578 38.688 214.602 40.734 L 214.602 40.734 L 214.602 40.734 Q 215.625 42.781 217.578 42.781 L 217.578 42.781 L 217.578 42.781 Q 218.609 42.781 219.672 42.516 L 219.672 42.516 L 219.672 37.281 L 216.844 37.281 L 216.844 37.281 Z  M 237.609 42.484 L 237.609 46.203 L 227.313 46.203 L 227.313 23.359 L 237.609 23.359 L 237.609 27.031 L 231.563 27.031 L 231.563 32.469 L 237.172 32.469 L 237.172 36.156 L 231.563 36.156 L 231.563 42.484 L 237.609 42.484 L 237.609 42.484 Z  M 251.344 39.906 L 251.344 39.906 L 251.344 39.906 Q 251.344 43.109 249.727 44.813 L 249.727 44.813 L 249.727 44.813 Q 248.109 46.516 245.063 46.516 L 245.063 46.516 L 245.063 46.516 Q 242.078 46.516 239.984 45.344 L 239.984 45.344 L 239.984 41.141 L 239.984 41.141 Q 242.547 42.813 244.688 42.813 L 244.688 42.813 L 244.688 42.813 Q 245.906 42.813 246.523 42.141 L 246.523 42.141 L 246.523 42.141 Q 247.141 41.469 247.141 40.313 L 247.141 40.313 L 247.141 40.313 Q 247.141 39.172 246.406 38.227 L 246.406 38.227 L 246.406 38.227 Q 245.672 37.281 243.984 36.125 L 243.984 36.125 L 243.984 36.125 Q 242.516 35.109 241.758 34.18 L 241.758 34.18 L 241.758 34.18 Q 241 33.25 240.586 32.094 L 240.586 32.094 L 240.586 32.094 Q 240.172 30.938 240.172 29.406 L 240.172 29.406 L 240.172 29.406 Q 240.172 26.469 241.805 24.75 L 241.805 24.75 L 241.805 24.75 Q 243.438 23.031 246.188 23.031 L 246.188 23.031 L 246.188 23.031 Q 248.813 23.031 251.234 24.5 L 251.234 24.5 L 249.828 27.906 L 249.828 27.906 Q 249.078 27.469 248.258 27.125 L 248.258 27.125 L 248.258 27.125 Q 247.438 26.781 246.5 26.781 L 246.5 26.781 L 246.5 26.781 Q 245.469 26.781 244.914 27.461 L 244.914 27.461 L 244.914 27.461 Q 244.359 28.141 244.359 29.313 L 244.359 29.313 L 244.359 29.313 Q 244.359 30.469 245.023 31.328 L 245.023 31.328 L 245.023 31.328 Q 245.688 32.188 247.344 33.281 L 247.344 33.281 L 247.344 33.281 Q 249.578 34.781 250.461 36.344 L 250.461 36.344 L 250.461 36.344 Q 251.344 37.906 251.344 39.906 Z  M 261.172 27.094 L 261.172 46.203 L 256.938 46.203 L 256.938 27.094 L 252.563 27.094 L 252.563 23.359 L 265.547 23.359 L 265.547 27.094 L 261.172 27.094 L 261.172 27.094 Z  M 29.594 26.75 L 29.594 26.75 L 29.594 26.75 Q 27.766 26.75 26.711 28.891 L 26.711 28.891 L 26.711 28.891 Q 25.656 31.031 25.656 34.844 L 25.656 34.844 L 25.656 34.844 Q 25.656 42.781 29.797 42.781 L 29.797 42.781 L 29.797 42.781 Q 31.609 42.781 33.594 41.625 L 33.594 41.625 L 33.594 45.406 L 33.594 45.406 Q 31.922 46.516 29.313 46.516 L 29.313 46.516 L 29.313 46.516 Q 25.453 46.516 23.383 43.445 L 23.383 43.445 L 23.383 43.445 Q 21.313 40.375 21.313 34.813 L 21.313 34.813 L 21.313 34.813 Q 21.313 29.25 23.445 26.141 L 23.445 26.141 L 23.445 26.141 Q 25.578 23.031 29.375 23.031 L 29.375 23.031 L 29.375 23.031 Q 30.625 23.031 31.773 23.375 L 31.773 23.375 L 31.773 23.375 Q 32.922 23.719 34.234 24.578 L 34.234 24.578 L 32.828 28.031 L 32.828 28.031 Q 32.125 27.547 31.328 27.148 L 31.328 27.148 L 31.328 27.148 Q 30.531 26.75 29.594 26.75 Z  M 50.938 23.359 L 50.938 46.203 L 46.688 46.203 L 46.688 36.188 L 41.078 36.188 L 41.078 46.203 L 36.828 46.203 L 36.828 23.359 L 41.078 23.359 L 41.078 32.438 L 46.688 32.438 L 46.688 23.359 L 50.938 23.359 L 50.938 23.359 Z  M 70.688 34.75 L 70.688 34.75 L 70.688 34.75 Q 70.688 40.422 68.563 43.469 L 68.563 43.469 L 68.563 43.469 Q 66.438 46.516 62.484 46.516 L 62.484 46.516 L 62.484 46.516 Q 58.516 46.516 56.391 43.477 L 56.391 43.477 L 56.391 43.477 Q 54.266 40.438 54.266 34.719 L 54.266 34.719 L 54.266 34.719 Q 54.266 29.047 56.391 26.023 L 56.391 26.023 L 56.391 26.023 Q 58.516 23 62.516 23 L 62.516 23 L 62.516 23 Q 66.469 23 68.578 26.039 L 68.578 26.039 L 68.578 26.039 Q 70.688 29.078 70.688 34.75 Z  M 58.609 34.75 L 58.609 34.75 L 58.609 34.75 Q 58.609 38.656 59.594 40.703 L 59.594 40.703 L 59.594 40.703 Q 60.578 42.75 62.484 42.75 L 62.484 42.75 L 62.484 42.75 Q 66.328 42.75 66.328 34.75 L 66.328 34.75 L 66.328 34.75 Q 66.328 26.75 62.516 26.75 L 62.516 26.75 L 62.516 26.75 Q 60.578 26.75 59.594 28.789 L 59.594 28.789 L 59.594 28.789 Q 58.609 30.828 58.609 34.75 Z  M 89.734 34.75 L 89.734 34.75 L 89.734 34.75 Q 89.734 40.422 87.609 43.469 L 87.609 43.469 L 87.609 43.469 Q 85.484 46.516 81.531 46.516 L 81.531 46.516 L 81.531 46.516 Q 77.563 46.516 75.438 43.477 L 75.438 43.477 L 75.438 43.477 Q 73.313 40.438 73.313 34.719 L 73.313 34.719 L 73.313 34.719 Q 73.313 29.047 75.438 26.023 L 75.438 26.023 L 75.438 26.023 Q 77.563 23 81.563 23 L 81.563 23 L 81.563 23 Q 85.516 23 87.625 26.039 L 87.625 26.039 L 87.625 26.039 Q 89.734 29.078 89.734 34.75 Z  M 77.656 34.75 L 77.656 34.75 L 77.656 34.75 Q 77.656 38.656 78.641 40.703 L 78.641 40.703 L 78.641 40.703 Q 79.625 42.75 81.531 42.75 L 81.531 42.75 L 81.531 42.75 Q 85.375 42.75 85.375 34.75 L 85.375 34.75 L 85.375 34.75 Q 85.375 26.75 81.563 26.75 L 81.563 26.75 L 81.563 26.75 Q 79.625 26.75 78.641 28.789 L 78.641 28.789 L 78.641 28.789 Q 77.656 30.828 77.656 34.75 Z  M 103.469 39.906 L 103.469 39.906 L 103.469 39.906 Q 103.469 43.109 101.852 44.813 L 101.852 44.813 L 101.852 44.813 Q 100.234 46.516 97.188 46.516 L 97.188 46.516 L 97.188 46.516 Q 94.203 46.516 92.109 45.344 L 92.109 45.344 L 92.109 41.141 L 92.109 41.141 Q 94.672 42.813 96.813 42.813 L 96.813 42.813 L 96.813 42.813 Q 98.031 42.813 98.648 42.141 L 98.648 42.141 L 98.648 42.141 Q 99.266 41.469 99.266 40.313 L 99.266 40.313 L 99.266 40.313 Q 99.266 39.172 98.531 38.227 L 98.531 38.227 L 98.531 38.227 Q 97.797 37.281 96.109 36.125 L 96.109 36.125 L 96.109 36.125 Q 94.641 35.109 93.883 34.18 L 93.883 34.18 L 93.883 34.18 Q 93.125 33.25 92.711 32.094 L 92.711 32.094 L 92.711 32.094 Q 92.297 30.938 92.297 29.406 L 92.297 29.406 L 92.297 29.406 Q 92.297 26.469 93.93 24.75 L 93.93 24.75 L 93.93 24.75 Q 95.563 23.031 98.313 23.031 L 98.313 23.031 L 98.313 23.031 Q 100.938 23.031 103.359 24.5 L 103.359 24.5 L 101.953 27.906 L 101.953 27.906 Q 101.203 27.469 100.383 27.125 L 100.383 27.125 L 100.383 27.125 Q 99.563 26.781 98.625 26.781 L 98.625 26.781 L 98.625 26.781 Q 97.594 26.781 97.039 27.461 L 97.039 27.461 L 97.039 27.461 Q 96.484 28.141 96.484 29.313 L 96.484 29.313 L 96.484 29.313 Q 96.484 30.469 97.148 31.328 L 97.148 31.328 L 97.148 31.328 Q 97.813 32.188 99.469 33.281 L 99.469 33.281 L 99.469 33.281 Q 101.703 34.781 102.586 36.344 L 102.586 36.344 L 102.586 36.344 Q 103.469 37.906 103.469 39.906 Z  M 116.578 42.484 L 116.578 46.203 L 106.281 46.203 L 106.281 23.359 L 116.578 23.359 L 116.578 27.031 L 110.531 27.031 L 110.531 32.469 L 116.141 32.469 L 116.141 36.156 L 110.531 36.156 L 110.531 42.484 L 116.578 42.484 L 116.578 42.484 Z " fill-rule="evenodd" fill="rgb(0,0,0)"/><path d=" M 179.875 327.637 L 182.371 315.836 L 183.543 315.836 L 179.898 332.969 L 178.504 332.969 L 175.891 320.148 L 175.891 320.148 Q 175.82 319.832 175.48 317.348 L 175.48 317.348 L 175.316 318.461 L 175.047 320.125 L 172.48 332.969 L 171.121 332.969 L 167.441 315.836 L 168.648 315.836 L 171.063 327.637 L 171.063 327.637 Q 171.625 330.52 171.789 331.668 L 171.789 331.668 L 171.789 331.668 Q 172.047 329.793 172.457 327.684 L 172.457 327.684 L 174.859 315.836 L 176.16 315.836 L 178.551 327.637 L 178.551 327.637 Q 178.926 329.559 179.09 330.801 L 179.09 330.801 L 179.207 331.668 L 179.207 331.668 Q 179.547 329.195 179.875 327.637 L 179.875 327.637 Z  M 192.531 326.582 L 192.531 326.582 L 192.531 326.582 Q 192.531 329.793 191.518 331.498 L 191.518 331.498 L 191.518 331.498 Q 190.504 333.203 188.617 333.203 L 188.617 333.203 L 188.617 333.203 Q 186.754 333.203 185.764 331.498 L 185.764 331.498 L 185.764 331.498 Q 184.773 329.793 184.773 326.582 L 184.773 326.582 L 184.773 326.582 Q 184.773 320.008 188.664 320.008 L 188.664 320.008 L 188.664 320.008 Q 190.492 320.008 191.512 321.73 L 191.512 321.73 L 191.512 321.73 Q 192.531 323.453 192.531 326.582 Z  M 185.934 326.582 L 185.934 326.582 L 185.934 326.582 Q 185.934 329.336 186.59 330.742 L 186.59 330.742 L 186.59 330.742 Q 187.246 332.148 188.641 332.148 L 188.641 332.148 L 188.641 332.148 Q 191.371 332.148 191.371 326.582 L 191.371 326.582 L 191.371 326.582 Q 191.371 321.063 188.641 321.063 L 188.641 321.063 L 188.641 321.063 Q 187.211 321.063 186.572 322.445 L 186.572 322.445 L 186.572 322.445 Q 185.934 323.828 185.934 326.582 Z  M 207.238 332.969 L 206.137 332.969 L 206.137 324.309 L 206.137 324.309 Q 206.137 321.109 204.262 321.109 L 204.262 321.109 L 204.262 321.109 Q 202.973 321.109 202.404 322.229 L 202.404 322.229 L 202.404 322.229 Q 201.836 323.348 201.836 325.527 L 201.836 325.527 L 201.836 332.969 L 200.734 332.969 L 200.734 324.309 L 200.734 324.309 Q 200.734 322.691 200.277 321.9 L 200.277 321.9 L 200.277 321.9 Q 199.82 321.109 198.859 321.109 L 198.859 321.109 L 198.859 321.109 Q 197.594 321.109 197.02 322.258 L 197.02 322.258 L 197.02 322.258 Q 196.445 323.406 196.445 325.984 L 196.445 325.984 L 196.445 332.969 L 195.332 332.969 L 195.332 320.254 L 196.27 320.254 L 196.363 322.023 L 196.469 322.023 L 196.469 322.023 Q 197.23 320.008 199.059 320.008 L 199.059 320.008 L 199.059 320.008 Q 200.113 320.008 200.723 320.57 L 200.723 320.57 L 200.723 320.57 Q 201.332 321.133 201.602 322.211 L 201.602 322.211 L 201.602 322.211 Q 202.059 321.039 202.727 320.523 L 202.727 320.523 L 202.727 320.523 Q 203.395 320.008 204.461 320.008 L 204.461 320.008 L 204.461 320.008 Q 205.902 320.008 206.57 321.115 L 206.57 321.115 L 206.57 321.115 Q 207.238 322.223 207.238 324.66 L 207.238 324.66 L 207.238 332.969 Z  M 216.438 332.969 L 215.523 332.969 L 215.383 331.188 L 215.336 331.188 L 215.336 331.188 Q 214.422 333.203 212.57 333.203 L 212.57 333.203 L 212.57 333.203 Q 211.328 333.203 210.572 332.213 L 210.572 332.213 L 210.572 332.213 Q 209.816 331.223 209.816 329.559 L 209.816 329.559 L 209.816 329.559 Q 209.816 327.742 210.906 326.682 L 210.906 326.682 L 210.906 326.682 Q 211.996 325.621 213.965 325.527 L 213.965 325.527 L 215.336 325.457 L 215.336 324.402 L 215.336 324.402 Q 215.336 322.621 214.891 321.807 L 214.891 321.807 L 214.891 321.807 Q 214.445 320.992 213.414 320.992 L 213.414 320.992 L 213.414 320.992 Q 212.324 320.992 211.188 321.707 L 211.188 321.707 L 210.707 320.828 L 210.707 320.828 Q 212.031 320.008 213.484 320.008 L 213.484 320.008 L 213.484 320.008 Q 215.055 320.008 215.746 320.998 L 215.746 320.998 L 215.746 320.998 Q 216.438 321.988 216.438 324.309 L 216.438 324.309 L 216.438 332.969 Z  M 212.816 332.254 L 212.816 332.254 L 212.816 332.254 Q 214.012 332.254 214.674 331.076 L 214.674 331.076 L 214.674 331.076 Q 215.336 329.898 215.336 327.742 L 215.336 327.742 L 215.336 326.418 L 214.012 326.488 L 214.012 326.488 Q 212.477 326.57 211.732 327.338 L 211.732 327.338 L 211.732 327.338 Q 210.988 328.105 210.988 329.582 L 210.988 329.582 L 210.988 329.582 Q 210.988 330.965 211.48 331.609 L 211.48 331.609 L 211.48 331.609 Q 211.973 332.254 212.816 332.254 Z  M 226.633 332.969 L 225.531 332.969 L 225.531 324.203 L 225.531 324.203 Q 225.531 321.039 223.656 321.039 L 223.656 321.039 L 223.656 321.039 Q 222.227 321.039 221.564 322.223 L 221.564 322.223 L 221.564 322.223 Q 220.902 323.406 220.902 325.984 L 220.902 325.984 L 220.902 332.969 L 219.789 332.969 L 219.789 320.254 L 220.727 320.254 L 220.82 322.023 L 220.926 322.023 L 220.926 322.023 Q 221.324 321.063 222.074 320.535 L 222.074 320.535 L 222.074 320.535 Q 222.824 320.008 223.68 320.008 L 223.68 320.008 L 223.68 320.008 Q 225.156 320.008 225.895 320.998 L 225.895 320.998 L 225.895 320.998 Q 226.633 321.988 226.633 324.18 L 226.633 324.18 L 226.633 332.969 Z  M 112.434 327.637 L 114.93 315.836 L 116.102 315.836 L 112.457 332.969 L 111.063 332.969 L 108.449 320.148 L 108.449 320.148 Q 108.379 319.832 108.039 317.348 L 108.039 317.348 L 107.875 318.461 L 107.605 320.125 L 105.039 332.969 L 103.68 332.969 L 100 315.836 L 101.207 315.836 L 103.621 327.637 L 103.621 327.637 Q 104.184 330.52 104.348 331.668 L 104.348 331.668 L 104.348 331.668 Q 104.605 329.793 105.016 327.684 L 105.016 327.684 L 107.418 315.836 L 108.719 315.836 L 111.109 327.637 L 111.109 327.637 Q 111.484 329.559 111.648 330.801 L 111.648 330.801 L 111.766 331.668 L 111.766 331.668 Q 112.105 329.195 112.434 327.637 L 112.434 327.637 Z  M 125.09 326.582 L 125.09 326.582 L 125.09 326.582 Q 125.09 329.793 124.076 331.498 L 124.076 331.498 L 124.076 331.498 Q 123.063 333.203 121.176 333.203 L 121.176 333.203 L 121.176 333.203 Q 119.313 333.203 118.322 331.498 L 118.322 331.498 L 118.322 331.498 Q 117.332 329.793 117.332 326.582 L 117.332 326.582 L 117.332 326.582 Q 117.332 320.008 121.223 320.008 L 121.223 320.008 L 121.223 320.008 Q 123.051 320.008 124.07 321.73 L 124.07 321.73 L 124.07 321.73 Q 125.09 323.453 125.09 326.582 Z  M 118.492 326.582 L 118.492 326.582 L 118.492 326.582 Q 118.492 329.336 119.148 330.742 L 119.148 330.742 L 119.148 330.742 Q 119.805 332.148 121.199 332.148 L 121.199 332.148 L 121.199 332.148 Q 123.93 332.148 123.93 326.582 L 123.93 326.582 L 123.93 326.582 Q 123.93 321.063 121.199 321.063 L 121.199 321.063 L 121.199 321.063 Q 119.77 321.063 119.131 322.445 L 119.131 322.445 L 119.131 322.445 Q 118.492 323.828 118.492 326.582 Z  M 134.734 332.969 L 133.633 332.969 L 133.633 324.203 L 133.633 324.203 Q 133.633 321.039 131.758 321.039 L 131.758 321.039 L 131.758 321.039 Q 130.328 321.039 129.666 322.223 L 129.666 322.223 L 129.666 322.223 Q 129.004 323.406 129.004 325.984 L 129.004 325.984 L 129.004 332.969 L 127.891 332.969 L 127.891 320.254 L 128.828 320.254 L 128.922 322.023 L 129.027 322.023 L 129.027 322.023 Q 129.426 321.063 130.176 320.535 L 130.176 320.535 L 130.176 320.535 Q 130.926 320.008 131.781 320.008 L 131.781 320.008 L 131.781 320.008 Q 133.258 320.008 133.996 320.998 L 133.996 320.998 L 133.996 320.998 Q 134.734 321.988 134.734 324.18 L 134.734 324.18 L 134.734 332.969 Z  M 141.191 333.203 L 141.191 333.203 L 141.191 333.203 Q 137.488 333.203 137.488 326.629 L 137.488 326.629 L 137.488 326.629 Q 137.488 323.395 138.414 321.701 L 138.414 321.701 L 138.414 321.701 Q 139.34 320.008 141.145 320.008 L 141.145 320.008 L 141.145 320.008 Q 142 320.008 142.768 320.5 L 142.768 320.5 L 142.768 320.5 Q 143.535 320.992 143.992 321.859 L 143.992 321.859 L 144.086 321.859 L 144.039 320.441 L 144.039 314.734 L 145.152 314.734 L 145.152 332.969 L 144.238 332.969 L 144.145 331.188 L 144.039 331.188 L 144.039 331.188 Q 143.582 332.16 142.855 332.682 L 142.855 332.682 L 142.855 332.682 Q 142.129 333.203 141.191 333.203 Z  M 141.262 332.23 L 141.262 332.23 L 141.262 332.23 Q 142.598 332.23 143.318 330.994 L 143.318 330.994 L 143.318 330.994 Q 144.039 329.758 144.039 327.355 L 144.039 327.355 L 144.039 326.629 L 144.039 326.629 Q 144.039 323.746 143.342 322.404 L 143.342 322.404 L 143.342 322.404 Q 142.645 321.063 141.215 321.063 L 141.215 321.063 L 141.215 321.063 Q 139.844 321.063 139.246 322.498 L 139.246 322.498 L 139.246 322.498 Q 138.648 323.934 138.648 326.652 L 138.648 326.652 L 138.648 326.652 Q 138.648 329.395 139.27 330.813 L 139.27 330.813 L 139.27 330.813 Q 139.891 332.23 141.262 332.23 Z  M 152.16 333.203 L 152.16 333.203 L 152.16 333.203 Q 150.145 333.203 149.061 331.486 L 149.061 331.486 L 149.061 331.486 Q 147.977 329.77 147.977 326.699 L 147.977 326.699 L 147.977 326.699 Q 147.977 323.441 148.943 321.725 L 148.943 321.725 L 148.943 321.725 Q 149.91 320.008 151.727 320.008 L 151.727 320.008 L 151.727 320.008 Q 153.309 320.008 154.223 321.514 L 154.223 321.514 L 154.223 321.514 Q 155.137 323.02 155.137 325.574 L 155.137 325.574 L 155.137 326.605 L 149.113 326.605 L 149.113 326.605 Q 149.137 329.383 149.898 330.766 L 149.898 330.766 L 149.898 330.766 Q 150.66 332.148 152.207 332.148 L 152.207 332.148 L 152.207 332.148 Q 153.402 332.148 154.727 331.363 L 154.727 331.363 L 154.727 332.441 L 154.727 332.441 Q 153.508 333.203 152.16 333.203 Z  M 151.656 321.016 L 151.656 321.016 L 151.656 321.016 Q 149.359 321.016 149.137 325.598 L 149.137 325.598 L 154.023 325.598 L 154.023 325.598 Q 154.023 323.5 153.385 322.258 L 153.385 322.258 L 153.385 322.258 Q 152.746 321.016 151.656 321.016 Z  M 161.488 320.008 L 161.488 320.008 L 161.488 320.008 Q 162.086 320.008 162.602 320.172 L 162.602 320.172 L 162.332 321.285 L 162.332 321.285 Q 161.91 321.109 161.465 321.109 L 161.465 321.109 L 161.465 321.109 Q 160.82 321.109 160.264 321.771 L 160.264 321.771 L 160.264 321.771 Q 159.707 322.434 159.391 323.617 L 159.391 323.617 L 159.391 323.617 Q 159.074 324.801 159.074 326.23 L 159.074 326.23 L 159.074 332.969 L 157.961 332.969 L 157.961 320.254 L 158.875 320.254 L 158.992 322.48 L 159.074 322.48 L 159.074 322.48 Q 159.965 320.008 161.488 320.008 Z  M 112.434 278.611 L 114.93 266.811 L 116.102 266.811 L 112.457 283.943 L 111.063 283.943 L 108.449 271.123 L 108.449 271.123 Q 108.379 270.807 108.039 268.322 L 108.039 268.322 L 107.875 269.436 L 107.605 271.1 L 105.039 283.943 L 103.68 283.943 L 100 266.811 L 101.207 266.811 L 103.621 278.611 L 103.621 278.611 Q 104.184 281.494 104.348 282.643 L 104.348 282.643 L 104.348 282.643 Q 104.605 280.768 105.016 278.658 L 105.016 278.658 L 107.418 266.811 L 108.719 266.811 L 111.109 278.611 L 111.109 278.611 Q 111.484 280.533 111.648 281.775 L 111.648 281.775 L 111.766 282.643 L 111.766 282.643 Q 112.105 280.17 112.434 278.611 L 112.434 278.611 Z  M 125.09 277.557 L 125.09 277.557 L 125.09 277.557 Q 125.09 280.768 124.076 282.473 L 124.076 282.473 L 124.076 282.473 Q 123.063 284.178 121.176 284.178 L 121.176 284.178 L 121.176 284.178 Q 119.313 284.178 118.322 282.473 L 118.322 282.473 L 118.322 282.473 Q 117.332 280.768 117.332 277.557 L 117.332 277.557 L 117.332 277.557 Q 117.332 270.982 121.223 270.982 L 121.223 270.982 L 121.223 270.982 Q 123.051 270.982 124.07 272.705 L 124.07 272.705 L 124.07 272.705 Q 125.09 274.428 125.09 277.557 Z  M 118.492 277.557 L 118.492 277.557 L 118.492 277.557 Q 118.492 280.311 119.148 281.717 L 119.148 281.717 L 119.148 281.717 Q 119.805 283.123 121.199 283.123 L 121.199 283.123 L 121.199 283.123 Q 123.93 283.123 123.93 277.557 L 123.93 277.557 L 123.93 277.557 Q 123.93 272.037 121.199 272.037 L 121.199 272.037 L 121.199 272.037 Q 119.77 272.037 119.131 273.42 L 119.131 273.42 L 119.131 273.42 Q 118.492 274.803 118.492 277.557 Z  M 129.004 265.709 L 129.004 283.943 L 127.891 283.943 L 127.891 265.709 L 129.004 265.709 Z  M 135.145 283.943 L 133.82 283.943 L 130.82 271.229 L 131.945 271.229 L 133.844 279.408 L 133.844 279.408 Q 134.172 280.826 134.477 282.502 L 134.477 282.502 L 134.57 282.502 L 134.57 282.502 Q 134.652 281.893 134.805 281.143 L 134.805 281.143 L 134.805 281.143 Q 134.957 280.393 137.113 271.229 L 137.113 271.229 L 138.238 271.229 L 135.145 283.943 Z  M 143.664 284.178 L 143.664 284.178 L 143.664 284.178 Q 141.648 284.178 140.564 282.461 L 140.564 282.461 L 140.564 282.461 Q 139.48 280.744 139.48 277.674 L 139.48 277.674 L 139.48 277.674 Q 139.48 274.416 140.447 272.699 L 140.447 272.699 L 140.447 272.699 Q 141.414 270.982 143.23 270.982 L 143.23 270.982 L 143.23 270.982 Q 144.813 270.982 145.727 272.488 L 145.727 272.488 L 145.727 272.488 Q 146.641 273.994 146.641 276.549 L 146.641 276.549 L 146.641 277.58 L 140.617 277.58 L 140.617 277.58 Q 140.641 280.357 141.402 281.74 L 141.402 281.74 L 141.402 281.74 Q 142.164 283.123 143.711 283.123 L 143.711 283.123 L 143.711 283.123 Q 144.906 283.123 146.23 282.338 L 146.23 282.338 L 146.23 283.416 L 146.23 283.416 Q 145.012 284.178 143.664 284.178 Z  M 143.16 271.99 L 143.16 271.99 L 143.16 271.99 Q 140.863 271.99 140.641 276.572 L 140.641 276.572 L 145.527 276.572 L 145.527 276.572 Q 145.527 274.475 144.889 273.232 L 144.889 273.232 L 144.889 273.232 Q 144.25 271.99 143.16 271.99 Z  M 152.992 270.982 L 152.992 270.982 L 152.992 270.982 Q 153.59 270.982 154.105 271.146 L 154.105 271.146 L 153.836 272.26 L 153.836 272.26 Q 153.414 272.084 152.969 272.084 L 152.969 272.084 L 152.969 272.084 Q 152.324 272.084 151.768 272.746 L 151.768 272.746 L 151.768 272.746 Q 151.211 273.408 150.895 274.592 L 150.895 274.592 L 150.895 274.592 Q 150.578 275.775 150.578 277.205 L 150.578 277.205 L 150.578 283.943 L 149.465 283.943 L 149.465 271.229 L 150.379 271.229 L 150.496 273.455 L 150.578 273.455 L 150.578 273.455 Q 151.469 270.982 152.992 270.982 Z  M 157.129 271.229 L 157.129 283.943 L 156.016 283.943 L 156.016 271.229 L 157.129 271.229 Z  M 155.852 267.701 L 155.852 267.701 L 155.852 267.701 Q 155.852 267.174 156.068 266.881 L 156.068 266.881 L 156.068 266.881 Q 156.285 266.588 156.625 266.588 L 156.625 266.588 L 156.625 266.588 Q 156.941 266.588 157.129 266.881 L 157.129 266.881 L 157.129 266.881 Q 157.316 267.174 157.316 267.701 L 157.316 267.701 L 157.316 267.701 Q 157.316 268.205 157.129 268.504 L 157.129 268.504 L 157.129 268.504 Q 156.941 268.803 156.625 268.803 L 156.625 268.803 L 156.625 268.803 Q 156.285 268.803 156.068 268.504 L 156.068 268.504 L 156.068 268.504 Q 155.852 268.205 155.852 267.701 Z  M 167.371 283.943 L 166.27 283.943 L 166.27 275.178 L 166.27 275.178 Q 166.27 272.014 164.395 272.014 L 164.395 272.014 L 164.395 272.014 Q 162.965 272.014 162.303 273.197 L 162.303 273.197 L 162.303 273.197 Q 161.641 274.381 161.641 276.959 L 161.641 276.959 L 161.641 283.943 L 160.527 283.943 L 160.527 271.229 L 161.465 271.229 L 161.559 272.998 L 161.664 272.998 L 161.664 272.998 Q 162.063 272.037 162.813 271.51 L 162.813 271.51 L 162.813 271.51 Q 163.563 270.982 164.418 270.982 L 164.418 270.982 L 164.418 270.982 Q 165.895 270.982 166.633 271.973 L 166.633 271.973 L 166.633 271.973 Q 167.371 272.963 167.371 275.154 L 167.371 275.154 L 167.371 283.943 Z  M 174.332 284.178 L 174.332 284.178 L 174.332 284.178 Q 172.316 284.178 171.232 282.461 L 171.232 282.461 L 171.232 282.461 Q 170.148 280.744 170.148 277.674 L 170.148 277.674 L 170.148 277.674 Q 170.148 274.416 171.115 272.699 L 171.115 272.699 L 171.115 272.699 Q 172.082 270.982 173.898 270.982 L 173.898 270.982 L 173.898 270.982 Q 175.48 270.982 176.395 272.488 L 176.395 272.488 L 176.395 272.488 Q 177.309 273.994 177.309 276.549 L 177.309 276.549 L 177.309 277.58 L 171.285 277.58 L 171.285 277.58 Q 171.309 280.357 172.07 281.74 L 172.07 281.74 L 172.07 281.74 Q 172.832 283.123 174.379 283.123 L 174.379 283.123 L 174.379 283.123 Q 175.574 283.123 176.898 282.338 L 176.898 282.338 L 176.898 283.416 L 176.898 283.416 Q 175.68 284.178 174.332 284.178 Z  M 173.828 271.99 L 173.828 271.99 L 173.828 271.99 Q 171.531 271.99 171.309 276.572 L 171.309 276.572 L 176.195 276.572 L 176.195 276.572 Q 176.195 274.475 175.557 273.232 L 175.557 273.232 L 175.557 273.232 Q 174.918 271.99 173.828 271.99 Z  M 108.332 230.43 L 108.332 230.43 L 108.332 230.43 Q 108.332 232.539 107.16 233.846 L 107.16 233.846 L 107.16 233.846 Q 105.988 235.152 104.184 235.152 L 104.184 235.152 L 104.184 235.152 Q 102.133 235.152 100.891 234.555 L 100.891 234.555 L 100.891 233.313 L 100.891 233.313 Q 101.5 233.652 102.402 233.852 L 102.402 233.852 L 102.402 233.852 Q 103.305 234.051 104.184 234.051 L 104.184 234.051 L 104.184 234.051 Q 105.496 234.051 106.34 233.055 L 106.34 233.055 L 106.34 233.055 Q 107.184 232.059 107.184 230.523 L 107.184 230.523 L 107.184 230.523 Q 107.184 229.105 106.586 228.273 L 106.586 228.273 L 106.586 228.273 Q 105.988 227.441 104.301 226.609 L 104.301 226.609 L 104.301 226.609 Q 102.977 225.941 102.32 225.314 L 102.32 225.314 L 102.32 225.314 Q 101.664 224.688 101.348 223.855 L 101.348 223.855 L 101.348 223.855 Q 101.031 223.023 101.031 221.863 L 101.031 221.863 L 101.031 221.863 Q 101.031 220.598 101.547 219.613 L 101.547 219.613 L 101.547 219.613 Q 102.063 218.629 102.988 218.084 L 102.988 218.084 L 102.988 218.084 Q 103.914 217.539 105.016 217.539 L 105.016 217.539 L 105.016 217.539 Q 106.012 217.539 106.826 217.762 L 106.826 217.762 L 106.826 217.762 Q 107.641 217.984 108.109 218.242 L 108.109 218.242 L 107.664 219.344 L 107.664 219.344 Q 106.363 218.676 105.016 218.676 L 105.016 218.676 L 105.016 218.676 Q 103.75 218.676 102.959 219.537 L 102.959 219.537 L 102.959 219.537 Q 102.168 220.398 102.168 221.816 L 102.168 221.816 L 102.168 221.816 Q 102.168 223.258 102.742 224.055 L 102.742 224.055 L 102.742 224.055 Q 103.316 224.852 104.992 225.707 L 104.992 225.707 L 104.992 225.707 Q 106.727 226.551 107.529 227.682 L 107.529 227.682 L 107.529 227.682 Q 108.332 228.813 108.332 230.43 Z  M 115.152 235.152 L 115.152 235.152 L 115.152 235.152 Q 114.191 235.152 113.4 234.619 L 113.4 234.619 L 113.4 234.619 Q 112.609 234.086 112.199 233.16 L 112.199 233.16 L 112.094 233.16 L 112.176 234.555 L 112.176 240.684 L 111.063 240.684 L 111.063 222.203 L 111.977 222.203 L 112.094 223.949 L 112.199 223.949 L 112.199 223.949 Q 112.668 222.988 113.4 222.473 L 113.4 222.473 L 113.4 222.473 Q 114.133 221.957 115 221.957 L 115 221.957 L 115 221.957 Q 118.727 221.957 118.727 228.531 L 118.727 228.531 L 118.727 228.531 Q 118.727 231.707 117.813 233.43 L 117.813 233.43 L 117.813 233.43 Q 116.898 235.152 115.152 235.152 Z  M 114.93 223.012 L 114.93 223.012 L 114.93 223.012 Q 113.535 223.012 112.855 224.242 L 112.855 224.242 L 112.855 224.242 Q 112.176 225.473 112.176 228.098 L 112.176 228.098 L 112.176 228.461 L 112.176 228.461 Q 112.176 231.391 112.867 232.768 L 112.867 232.768 L 112.867 232.768 Q 113.559 234.145 114.977 234.145 L 114.977 234.145 L 114.977 234.145 Q 116.289 234.145 116.928 232.779 L 116.928 232.779 L 116.928 232.779 Q 117.566 231.414 117.566 228.531 L 117.566 228.531 L 117.566 228.531 Q 117.566 225.777 116.969 224.395 L 116.969 224.395 L 116.969 224.395 Q 116.371 223.012 114.93 223.012 Z  M 122.641 222.203 L 122.641 234.918 L 121.527 234.918 L 121.527 222.203 L 122.641 222.203 Z  M 121.363 218.676 L 121.363 218.676 L 121.363 218.676 Q 121.363 218.148 121.58 217.855 L 121.58 217.855 L 121.58 217.855 Q 121.797 217.563 122.137 217.563 L 122.137 217.563 L 122.137 217.563 Q 122.453 217.563 122.641 217.855 L 122.641 217.855 L 122.641 217.855 Q 122.828 218.148 122.828 218.676 L 122.828 218.676 L 122.828 218.676 Q 122.828 219.18 122.641 219.479 L 122.641 219.479 L 122.641 219.479 Q 122.453 219.777 122.137 219.777 L 122.137 219.777 L 122.137 219.777 Q 121.797 219.777 121.58 219.479 L 121.58 219.479 L 121.58 219.479 Q 121.363 219.18 121.363 218.676 Z  M 129.145 235.152 L 129.145 235.152 L 129.145 235.152 Q 125.441 235.152 125.441 228.578 L 125.441 228.578 L 125.441 228.578 Q 125.441 225.344 126.367 223.65 L 126.367 223.65 L 126.367 223.65 Q 127.293 221.957 129.098 221.957 L 129.098 221.957 L 129.098 221.957 Q 129.953 221.957 130.721 222.449 L 130.721 222.449 L 130.721 222.449 Q 131.488 222.941 131.945 223.809 L 131.945 223.809 L 132.039 223.809 L 131.992 222.391 L 131.992 216.684 L 133.105 216.684 L 133.105 234.918 L 132.191 234.918 L 132.098 233.137 L 131.992 233.137 L 131.992 233.137 Q 131.535 234.109 130.809 234.631 L 130.809 234.631 L 130.809 234.631 Q 130.082 235.152 129.145 235.152 Z  M 129.215 234.18 L 129.215 234.18 L 129.215 234.18 Q 130.551 234.18 131.271 232.943 L 131.271 232.943 L 131.271 232.943 Q 131.992 231.707 131.992 229.305 L 131.992 229.305 L 131.992 228.578 L 131.992 228.578 Q 131.992 225.695 131.295 224.354 L 131.295 224.354 L 131.295 224.354 Q 130.598 223.012 129.168 223.012 L 129.168 223.012 L 129.168 223.012 Q 127.797 223.012 127.199 224.447 L 127.199 224.447 L 127.199 224.447 Q 126.602 225.883 126.602 228.602 L 126.602 228.602 L 126.602 228.602 Q 126.602 231.344 127.223 232.762 L 127.223 232.762 L 127.223 232.762 Q 127.844 234.18 129.215 234.18 Z  M 140.113 235.152 L 140.113 235.152 L 140.113 235.152 Q 138.098 235.152 137.014 233.436 L 137.014 233.436 L 137.014 233.436 Q 135.93 231.719 135.93 228.648 L 135.93 228.648 L 135.93 228.648 Q 135.93 225.391 136.896 223.674 L 136.896 223.674 L 136.896 223.674 Q 137.863 221.957 139.68 221.957 L 139.68 221.957 L 139.68 221.957 Q 141.262 221.957 142.176 223.463 L 142.176 223.463 L 142.176 223.463 Q 143.09 224.969 143.09 227.523 L 143.09 227.523 L 143.09 228.555 L 137.066 228.555 L 137.066 228.555 Q 137.09 231.332 137.852 232.715 L 137.852 232.715 L 137.852 232.715 Q 138.613 234.098 140.16 234.098 L 140.16 234.098 L 140.16 234.098 Q 141.355 234.098 142.68 233.313 L 142.68 233.313 L 142.68 234.391 L 142.68 234.391 Q 141.461 235.152 140.113 235.152 Z  M 139.609 222.965 L 139.609 222.965 L 139.609 222.965 Q 137.313 222.965 137.09 227.547 L 137.09 227.547 L 141.977 227.547 L 141.977 227.547 Q 141.977 225.449 141.338 224.207 L 141.338 224.207 L 141.338 224.207 Q 140.699 222.965 139.609 222.965 Z  M 149.441 221.957 L 149.441 221.957 L 149.441 221.957 Q 150.039 221.957 150.555 222.121 L 150.555 222.121 L 150.285 223.234 L 150.285 223.234 Q 149.863 223.059 149.418 223.059 L 149.418 223.059 L 149.418 223.059 Q 148.773 223.059 148.217 223.721 L 148.217 223.721 L 148.217 223.721 Q 147.66 224.383 147.344 225.566 L 147.344 225.566 L 147.344 225.566 Q 147.027 226.75 147.027 228.18 L 147.027 228.18 L 147.027 234.918 L 145.914 234.918 L 145.914 222.203 L 146.828 222.203 L 146.945 224.43 L 147.027 224.43 L 147.027 224.43 Q 147.918 221.957 149.441 221.957 Z  M 164.371 234.918 L 163.27 234.918 L 163.27 226.258 L 163.27 226.258 Q 163.27 223.059 161.395 223.059 L 161.395 223.059 L 161.395 223.059 Q 160.105 223.059 159.537 224.178 L 159.537 224.178 L 159.537 224.178 Q 158.969 225.297 158.969 227.477 L 158.969 227.477 L 158.969 234.918 L 157.867 234.918 L 157.867 226.258 L 157.867 226.258 Q 157.867 224.641 157.41 223.85 L 157.41 223.85 L 157.41 223.85 Q 156.953 223.059 155.992 223.059 L 155.992 223.059 L 155.992 223.059 Q 154.727 223.059 154.152 224.207 L 154.152 224.207 L 154.152 224.207 Q 153.578 225.355 153.578 227.934 L 153.578 227.934 L 153.578 234.918 L 152.465 234.918 L 152.465 222.203 L 153.402 222.203 L 153.496 223.973 L 153.602 223.973 L 153.602 223.973 Q 154.363 221.957 156.191 221.957 L 156.191 221.957 L 156.191 221.957 Q 157.246 221.957 157.855 222.52 L 157.855 222.52 L 157.855 222.52 Q 158.465 223.082 158.734 224.16 L 158.734 224.16 L 158.734 224.16 Q 159.191 222.988 159.859 222.473 L 159.859 222.473 L 159.859 222.473 Q 160.527 221.957 161.594 221.957 L 161.594 221.957 L 161.594 221.957 Q 163.035 221.957 163.703 223.064 L 163.703 223.064 L 163.703 223.064 Q 164.371 224.172 164.371 226.609 L 164.371 226.609 L 164.371 234.918 Z  M 173.57 234.918 L 172.656 234.918 L 172.516 233.137 L 172.469 233.137 L 172.469 233.137 Q 171.555 235.152 169.703 235.152 L 169.703 235.152 L 169.703 235.152 Q 168.461 235.152 167.705 234.162 L 167.705 234.162 L 167.705 234.162 Q 166.949 233.172 166.949 231.508 L 166.949 231.508 L 166.949 231.508 Q 166.949 229.691 168.039 228.631 L 168.039 228.631 L 168.039 228.631 Q 169.129 227.57 171.098 227.477 L 171.098 227.477 L 172.469 227.406 L 172.469 226.352 L 172.469 226.352 Q 172.469 224.57 172.023 223.756 L 172.023 223.756 L 172.023 223.756 Q 171.578 222.941 170.547 222.941 L 170.547 222.941 L 170.547 222.941 Q 169.457 222.941 168.32 223.656 L 168.32 223.656 L 167.84 222.777 L 167.84 222.777 Q 169.164 221.957 170.617 221.957 L 170.617 221.957 L 170.617 221.957 Q 172.188 221.957 172.879 222.947 L 172.879 222.947 L 172.879 222.947 Q 173.57 223.938 173.57 226.258 L 173.57 226.258 L 173.57 234.918 Z  M 169.949 234.203 L 169.949 234.203 L 169.949 234.203 Q 171.145 234.203 171.807 233.025 L 171.807 233.025 L 171.807 233.025 Q 172.469 231.848 172.469 229.691 L 172.469 229.691 L 172.469 228.367 L 171.145 228.438 L 171.145 228.438 Q 169.609 228.52 168.865 229.287 L 168.865 229.287 L 168.865 229.287 Q 168.121 230.055 168.121 231.531 L 168.121 231.531 L 168.121 231.531 Q 168.121 232.914 168.613 233.559 L 168.613 233.559 L 168.613 233.559 Q 169.105 234.203 169.949 234.203 Z  M 183.766 234.918 L 182.664 234.918 L 182.664 226.152 L 182.664 226.152 Q 182.664 222.988 180.789 222.988 L 180.789 222.988 L 180.789 222.988 Q 179.359 222.988 178.697 224.172 L 178.697 224.172 L 178.697 224.172 Q 178.035 225.355 178.035 227.934 L 178.035 227.934 L 178.035 234.918 L 176.922 234.918 L 176.922 222.203 L 177.859 222.203 L 177.953 223.973 L 178.059 223.973 L 178.059 223.973 Q 178.457 223.012 179.207 222.484 L 179.207 222.484 L 179.207 222.484 Q 179.957 221.957 180.813 221.957 L 180.813 221.957 L 180.813 221.957 Q 182.289 221.957 183.027 222.947 L 183.027 222.947 L 183.027 222.947 Q 183.766 223.938 183.766 226.129 L 183.766 226.129 L 183.766 234.918 Z  M 101.758 185.893 L 101.758 168.76 L 105.039 168.76 L 105.039 168.76 Q 107.055 168.76 108.139 169.791 L 108.139 169.791 L 108.139 169.791 Q 109.223 170.822 109.223 172.838 L 109.223 172.838 L 109.223 172.838 Q 109.223 176.318 106.68 176.822 L 106.68 176.822 L 106.68 176.916 L 106.68 176.916 Q 108.145 177.221 108.859 178.223 L 108.859 178.223 L 108.859 178.223 Q 109.574 179.225 109.574 181.018 L 109.574 181.018 L 109.574 181.018 Q 109.574 183.314 108.555 184.604 L 108.555 184.604 L 108.555 184.604 Q 107.535 185.893 105.695 185.893 L 105.695 185.893 L 101.758 185.893 Z  M 102.906 169.814 L 102.906 176.389 L 105.063 176.389 L 105.063 176.389 Q 106.668 176.389 107.354 175.504 L 107.354 175.504 L 107.354 175.504 Q 108.039 174.619 108.039 172.814 L 108.039 172.814 L 108.039 172.814 Q 108.039 171.361 107.283 170.588 L 107.283 170.588 L 107.283 170.588 Q 106.527 169.814 105.039 169.814 L 105.039 169.814 L 102.906 169.814 Z  M 105.215 177.443 L 102.906 177.443 L 102.906 184.838 L 105.543 184.838 L 105.543 184.838 Q 108.379 184.838 108.379 180.994 L 108.379 180.994 L 108.379 180.994 Q 108.379 179.283 107.547 178.363 L 107.547 178.363 L 107.547 178.363 Q 106.715 177.443 105.215 177.443 L 105.215 177.443 Z  M 118.047 185.893 L 117.133 185.893 L 116.992 184.111 L 116.945 184.111 L 116.945 184.111 Q 116.031 186.127 114.18 186.127 L 114.18 186.127 L 114.18 186.127 Q 112.938 186.127 112.182 185.137 L 112.182 185.137 L 112.182 185.137 Q 111.426 184.146 111.426 182.482 L 111.426 182.482 L 111.426 182.482 Q 111.426 180.666 112.516 179.605 L 112.516 179.605 L 112.516 179.605 Q 113.605 178.545 115.574 178.451 L 115.574 178.451 L 116.945 178.381 L 116.945 177.326 L 116.945 177.326 Q 116.945 175.545 116.5 174.73 L 116.5 174.73 L 116.5 174.73 Q 116.055 173.916 115.023 173.916 L 115.023 173.916 L 115.023 173.916 Q 113.934 173.916 112.797 174.631 L 112.797 174.631 L 112.316 173.752 L 112.316 173.752 Q 113.641 172.932 115.094 172.932 L 115.094 172.932 L 115.094 172.932 Q 116.664 172.932 117.355 173.922 L 117.355 173.922 L 117.355 173.922 Q 118.047 174.912 118.047 177.232 L 118.047 177.232 L 118.047 185.893 Z  M 114.426 185.178 L 114.426 185.178 L 114.426 185.178 Q 115.621 185.178 116.283 184 L 116.283 184 L 116.283 184 Q 116.945 182.822 116.945 180.666 L 116.945 180.666 L 116.945 179.342 L 115.621 179.412 L 115.621 179.412 Q 114.086 179.494 113.342 180.262 L 113.342 180.262 L 113.342 180.262 Q 112.598 181.029 112.598 182.506 L 112.598 182.506 L 112.598 182.506 Q 112.598 183.889 113.09 184.533 L 113.09 184.533 L 113.09 184.533 Q 113.582 185.178 114.426 185.178 Z  M 123.73 185.096 L 123.73 185.096 L 123.73 185.096 Q 124.246 185.096 124.645 184.955 L 124.645 184.955 L 124.645 185.893 L 124.645 185.893 Q 124.129 186.127 123.32 186.127 L 123.32 186.127 L 123.32 186.127 Q 121.352 186.127 121.352 183.186 L 121.352 183.186 L 121.352 174.162 L 120.203 174.162 L 120.203 173.506 L 121.328 173.178 L 121.691 170.154 L 122.465 170.154 L 122.465 173.178 L 124.48 173.178 L 124.48 174.162 L 122.465 174.162 L 122.465 182.869 L 122.465 182.869 Q 122.465 184.158 122.746 184.627 L 122.746 184.627 L 122.746 184.627 Q 123.027 185.096 123.73 185.096 Z  M 138.566 185.893 L 137.465 185.893 L 137.465 177.232 L 137.465 177.232 Q 137.465 174.033 135.59 174.033 L 135.59 174.033 L 135.59 174.033 Q 134.301 174.033 133.732 175.152 L 133.732 175.152 L 133.732 175.152 Q 133.164 176.271 133.164 178.451 L 133.164 178.451 L 133.164 185.893 L 132.063 185.893 L 132.063 177.232 L 132.063 177.232 Q 132.063 175.615 131.605 174.824 L 131.605 174.824 L 131.605 174.824 Q 131.148 174.033 130.188 174.033 L 130.188 174.033 L 130.188 174.033 Q 128.922 174.033 128.348 175.182 L 128.348 175.182 L 128.348 175.182 Q 127.773 176.33 127.773 178.908 L 127.773 178.908 L 127.773 185.893 L 126.66 185.893 L 126.66 173.178 L 127.598 173.178 L 127.691 174.947 L 127.797 174.947 L 127.797 174.947 Q 128.559 172.932 130.387 172.932 L 130.387 172.932 L 130.387 172.932 Q 131.441 172.932 132.051 173.494 L 132.051 173.494 L 132.051 173.494 Q 132.66 174.057 132.93 175.135 L 132.93 175.135 L 132.93 175.135 Q 133.387 173.963 134.055 173.447 L 134.055 173.447 L 134.055 173.447 Q 134.723 172.932 135.789 172.932 L 135.789 172.932 L 135.789 172.932 Q 137.23 172.932 137.898 174.039 L 137.898 174.039 L 137.898 174.039 Q 138.566 175.146 138.566 177.584 L 138.566 177.584 L 138.566 185.893 Z  M 147.766 185.893 L 146.852 185.893 L 146.711 184.111 L 146.664 184.111 L 146.664 184.111 Q 145.75 186.127 143.898 186.127 L 143.898 186.127 L 143.898 186.127 Q 142.656 186.127 141.9 185.137 L 141.9 185.137 L 141.9 185.137 Q 141.145 184.146 141.145 182.482 L 141.145 182.482 L 141.145 182.482 Q 141.145 180.666 142.234 179.605 L 142.234 179.605 L 142.234 179.605 Q 143.324 178.545 145.293 178.451 L 145.293 178.451 L 146.664 178.381 L 146.664 177.326 L 146.664 177.326 Q 146.664 175.545 146.219 174.73 L 146.219 174.73 L 146.219 174.73 Q 145.773 173.916 144.742 173.916 L 144.742 173.916 L 144.742 173.916 Q 143.652 173.916 142.516 174.631 L 142.516 174.631 L 142.035 173.752 L 142.035 173.752 Q 143.359 172.932 144.813 172.932 L 144.813 172.932 L 144.813 172.932 Q 146.383 172.932 147.074 173.922 L 147.074 173.922 L 147.074 173.922 Q 147.766 174.912 147.766 177.232 L 147.766 177.232 L 147.766 185.893 Z  M 144.145 185.178 L 144.145 185.178 L 144.145 185.178 Q 145.34 185.178 146.002 184 L 146.002 184 L 146.002 184 Q 146.664 182.822 146.664 180.666 L 146.664 180.666 L 146.664 179.342 L 145.34 179.412 L 145.34 179.412 Q 143.805 179.494 143.061 180.262 L 143.061 180.262 L 143.061 180.262 Q 142.316 181.029 142.316 182.506 L 142.316 182.506 L 142.316 182.506 Q 142.316 183.889 142.809 184.533 L 142.809 184.533 L 142.809 184.533 Q 143.301 185.178 144.145 185.178 Z  M 157.961 185.893 L 156.859 185.893 L 156.859 177.127 L 156.859 177.127 Q 156.859 173.963 154.984 173.963 L 154.984 173.963 L 154.984 173.963 Q 153.555 173.963 152.893 175.146 L 152.893 175.146 L 152.893 175.146 Q 152.23 176.33 152.23 178.908 L 152.23 178.908 L 152.23 185.893 L 151.117 185.893 L 151.117 173.178 L 152.055 173.178 L 152.148 174.947 L 152.254 174.947 L 152.254 174.947 Q 152.652 173.986 153.402 173.459 L 153.402 173.459 L 153.402 173.459 Q 154.152 172.932 155.008 172.932 L 155.008 172.932 L 155.008 172.932 Q 156.484 172.932 157.223 173.922 L 157.223 173.922 L 157.223 173.922 Q 157.961 174.912 157.961 177.104 L 157.961 177.104 L 157.961 185.893 Z  M 108.332 132.379 L 108.332 132.379 L 108.332 132.379 Q 108.332 134.488 107.16 135.795 L 107.16 135.795 L 107.16 135.795 Q 105.988 137.102 104.184 137.102 L 104.184 137.102 L 104.184 137.102 Q 102.133 137.102 100.891 136.504 L 100.891 136.504 L 100.891 135.262 L 100.891 135.262 Q 101.5 135.602 102.402 135.801 L 102.402 135.801 L 102.402 135.801 Q 103.305 136 104.184 136 L 104.184 136 L 104.184 136 Q 105.496 136 106.34 135.004 L 106.34 135.004 L 106.34 135.004 Q 107.184 134.008 107.184 132.473 L 107.184 132.473 L 107.184 132.473 Q 107.184 131.055 106.586 130.223 L 106.586 130.223 L 106.586 130.223 Q 105.988 129.391 104.301 128.559 L 104.301 128.559 L 104.301 128.559 Q 102.977 127.891 102.32 127.264 L 102.32 127.264 L 102.32 127.264 Q 101.664 126.637 101.348 125.805 L 101.348 125.805 L 101.348 125.805 Q 101.031 124.973 101.031 123.813 L 101.031 123.813 L 101.031 123.813 Q 101.031 122.547 101.547 121.563 L 101.547 121.563 L 101.547 121.563 Q 102.063 120.578 102.988 120.033 L 102.988 120.033 L 102.988 120.033 Q 103.914 119.488 105.016 119.488 L 105.016 119.488 L 105.016 119.488 Q 106.012 119.488 106.826 119.711 L 106.826 119.711 L 106.826 119.711 Q 107.641 119.934 108.109 120.191 L 108.109 120.191 L 107.664 121.293 L 107.664 121.293 Q 106.363 120.625 105.016 120.625 L 105.016 120.625 L 105.016 120.625 Q 103.75 120.625 102.959 121.486 L 102.959 121.486 L 102.959 121.486 Q 102.168 122.348 102.168 123.766 L 102.168 123.766 L 102.168 123.766 Q 102.168 125.207 102.742 126.004 L 102.742 126.004 L 102.742 126.004 Q 103.316 126.801 104.992 127.656 L 104.992 127.656 L 104.992 127.656 Q 106.727 128.5 107.529 129.631 L 107.529 129.631 L 107.529 129.631 Q 108.332 130.762 108.332 132.379 Z  M 111.016 124.152 L 112.129 124.152 L 112.129 132.449 L 112.129 132.449 Q 112.129 134.336 112.58 135.203 L 112.58 135.203 L 112.58 135.203 Q 113.031 136.07 113.969 136.07 L 113.969 136.07 L 113.969 136.07 Q 115.41 136.07 116.084 134.904 L 116.084 134.904 L 116.084 134.904 Q 116.758 133.738 116.758 131.137 L 116.758 131.137 L 116.758 124.152 L 117.859 124.152 L 117.859 136.867 L 116.922 136.867 L 116.781 135.086 L 116.688 135.086 L 116.688 135.086 Q 116.277 136.059 115.551 136.58 L 115.551 136.58 L 115.551 136.58 Q 114.824 137.102 113.969 137.102 L 113.969 137.102 L 113.969 137.102 Q 112.434 137.102 111.725 136.012 L 111.725 136.012 L 111.725 136.012 Q 111.016 134.922 111.016 132.449 L 111.016 132.449 L 111.016 124.152 Z  M 125.348 137.102 L 125.348 137.102 L 125.348 137.102 Q 124.387 137.102 123.596 136.568 L 123.596 136.568 L 123.596 136.568 Q 122.805 136.035 122.395 135.109 L 122.395 135.109 L 122.289 135.109 L 122.371 136.504 L 122.371 142.633 L 121.258 142.633 L 121.258 124.152 L 122.172 124.152 L 122.289 125.898 L 122.395 125.898 L 122.395 125.898 Q 122.863 124.938 123.596 124.422 L 123.596 124.422 L 123.596 124.422 Q 124.328 123.906 125.195 123.906 L 125.195 123.906 L 125.195 123.906 Q 128.922 123.906 128.922 130.48 L 128.922 130.48 L 128.922 130.48 Q 128.922 133.656 128.008 135.379 L 128.008 135.379 L 128.008 135.379 Q 127.094 137.102 125.348 137.102 Z  M 125.125 124.961 L 125.125 124.961 L 125.125 124.961 Q 123.73 124.961 123.051 126.191 L 123.051 126.191 L 123.051 126.191 Q 122.371 127.422 122.371 130.047 L 122.371 130.047 L 122.371 130.41 L 122.371 130.41 Q 122.371 133.34 123.063 134.717 L 123.063 134.717 L 123.063 134.717 Q 123.754 136.094 125.172 136.094 L 125.172 136.094 L 125.172 136.094 Q 126.484 136.094 127.123 134.729 L 127.123 134.729 L 127.123 134.729 Q 127.762 133.363 127.762 130.48 L 127.762 130.48 L 127.762 130.48 Q 127.762 127.727 127.164 126.344 L 127.164 126.344 L 127.164 126.344 Q 126.566 124.961 125.125 124.961 Z  M 135.332 137.102 L 135.332 137.102 L 135.332 137.102 Q 133.316 137.102 132.232 135.385 L 132.232 135.385 L 132.232 135.385 Q 131.148 133.668 131.148 130.598 L 131.148 130.598 L 131.148 130.598 Q 131.148 127.34 132.115 125.623 L 132.115 125.623 L 132.115 125.623 Q 133.082 123.906 134.898 123.906 L 134.898 123.906 L 134.898 123.906 Q 136.48 123.906 137.395 125.412 L 137.395 125.412 L 137.395 125.412 Q 138.309 126.918 138.309 129.473 L 138.309 129.473 L 138.309 130.504 L 132.285 130.504 L 132.285 130.504 Q 132.309 133.281 133.07 134.664 L 133.07 134.664 L 133.07 134.664 Q 133.832 136.047 135.379 136.047 L 135.379 136.047 L 135.379 136.047 Q 136.574 136.047 137.898 135.262 L 137.898 135.262 L 137.898 136.34 L 137.898 136.34 Q 136.68 137.102 135.332 137.102 Z  M 134.828 124.914 L 134.828 124.914 L 134.828 124.914 Q 132.531 124.914 132.309 129.496 L 132.309 129.496 L 137.195 129.496 L 137.195 129.496 Q 137.195 127.398 136.557 126.156 L 136.557 126.156 L 136.557 126.156 Q 135.918 124.914 134.828 124.914 Z  M 144.66 123.906 L 144.66 123.906 L 144.66 123.906 Q 145.258 123.906 145.773 124.07 L 145.773 124.07 L 145.504 125.184 L 145.504 125.184 Q 145.082 125.008 144.637 125.008 L 144.637 125.008 L 144.637 125.008 Q 143.992 125.008 143.436 125.67 L 143.436 125.67 L 143.436 125.67 Q 142.879 126.332 142.563 127.516 L 142.563 127.516 L 142.563 127.516 Q 142.246 128.699 142.246 130.129 L 142.246 130.129 L 142.246 136.867 L 141.133 136.867 L 141.133 124.152 L 142.047 124.152 L 142.164 126.379 L 142.246 126.379 L 142.246 126.379 Q 143.137 123.906 144.66 123.906 Z  M 159.59 136.867 L 158.488 136.867 L 158.488 128.207 L 158.488 128.207 Q 158.488 125.008 156.613 125.008 L 156.613 125.008 L 156.613 125.008 Q 155.324 125.008 154.756 126.127 L 154.756 126.127 L 154.756 126.127 Q 154.188 127.246 154.188 129.426 L 154.188 129.426 L 154.188 136.867 L 153.086 136.867 L 153.086 128.207 L 153.086 128.207 Q 153.086 126.59 152.629 125.799 L 152.629 125.799 L 152.629 125.799 Q 152.172 125.008 151.211 125.008 L 151.211 125.008 L 151.211 125.008 Q 149.945 125.008 149.371 126.156 L 149.371 126.156 L 149.371 126.156 Q 148.797 127.305 148.797 129.883 L 148.797 129.883 L 148.797 136.867 L 147.684 136.867 L 147.684 124.152 L 148.621 124.152 L 148.715 125.922 L 148.82 125.922 L 148.82 125.922 Q 149.582 123.906 151.41 123.906 L 151.41 123.906 L 151.41 123.906 Q 152.465 123.906 153.074 124.469 L 153.074 124.469 L 153.074 124.469 Q 153.684 125.031 153.953 126.109 L 153.953 126.109 L 153.953 126.109 Q 154.41 124.938 155.078 124.422 L 155.078 124.422 L 155.078 124.422 Q 155.746 123.906 156.813 123.906 L 156.813 123.906 L 156.813 123.906 Q 158.254 123.906 158.922 125.014 L 158.922 125.014 L 158.922 125.014 Q 159.59 126.121 159.59 128.559 L 159.59 128.559 L 159.59 136.867 Z  M 168.789 136.867 L 167.875 136.867 L 167.734 135.086 L 167.688 135.086 L 167.688 135.086 Q 166.773 137.102 164.922 137.102 L 164.922 137.102 L 164.922 137.102 Q 163.68 137.102 162.924 136.111 L 162.924 136.111 L 162.924 136.111 Q 162.168 135.121 162.168 133.457 L 162.168 133.457 L 162.168 133.457 Q 162.168 131.641 163.258 130.58 L 163.258 130.58 L 163.258 130.58 Q 164.348 129.52 166.316 129.426 L 166.316 129.426 L 167.688 129.355 L 167.688 128.301 L 167.688 128.301 Q 167.688 126.52 167.242 125.705 L 167.242 125.705 L 167.242 125.705 Q 166.797 124.891 165.766 124.891 L 165.766 124.891 L 165.766 124.891 Q 164.676 124.891 163.539 125.605 L 163.539 125.605 L 163.059 124.727 L 163.059 124.727 Q 164.383 123.906 165.836 123.906 L 165.836 123.906 L 165.836 123.906 Q 167.406 123.906 168.098 124.896 L 168.098 124.896 L 168.098 124.896 Q 168.789 125.887 168.789 128.207 L 168.789 128.207 L 168.789 136.867 Z  M 165.168 136.152 L 165.168 136.152 L 165.168 136.152 Q 166.363 136.152 167.025 134.975 L 167.025 134.975 L 167.025 134.975 Q 167.688 133.797 167.688 131.641 L 167.688 131.641 L 167.688 130.316 L 166.363 130.387 L 166.363 130.387 Q 164.828 130.469 164.084 131.236 L 164.084 131.236 L 164.084 131.236 Q 163.34 132.004 163.34 133.48 L 163.34 133.48 L 163.34 133.48 Q 163.34 134.863 163.832 135.508 L 163.832 135.508 L 163.832 135.508 Q 164.324 136.152 165.168 136.152 Z  M 178.984 136.867 L 177.883 136.867 L 177.883 128.102 L 177.883 128.102 Q 177.883 124.938 176.008 124.938 L 176.008 124.938 L 176.008 124.938 Q 174.578 124.938 173.916 126.121 L 173.916 126.121 L 173.916 126.121 Q 173.254 127.305 173.254 129.883 L 173.254 129.883 L 173.254 136.867 L 172.141 136.867 L 172.141 124.152 L 173.078 124.152 L 173.172 125.922 L 173.277 125.922 L 173.277 125.922 Q 173.676 124.961 174.426 124.434 L 174.426 124.434 L 174.426 124.434 Q 175.176 123.906 176.031 123.906 L 176.031 123.906 L 176.031 123.906 Q 177.508 123.906 178.246 124.896 L 178.246 124.896 L 178.246 124.896 Q 178.984 125.887 178.984 128.078 L 178.984 128.078 L 178.984 136.867 Z " fill-rule="evenodd" fill="rgb(0,0,0)"/><rect x="25" y="111.215" width="30" height="28.785" transform="matrix(1,0,0,1,0,0)" fill="none" vector-effect="non-scaling-stroke" stroke-width="2" stroke="rgb(119,119,119)" stroke-linejoin="miter" stroke-linecap="square" stroke-miterlimit="2"/><rect x="25" y="161.215" width="30" height="28.785" transform="matrix(1,0,0,1,0,0)" fill="none" vector-effect="non-scaling-stroke" stroke-width="2" stroke="rgb(119,119,119)" stroke-linejoin="miter" stroke-linecap="square" stroke-miterlimit="2"/><rect x="25" y="211.215" width="30" height="28.785" transform="matrix(1,0,0,1,0,0)" fill="none" vector-effect="non-scaling-stroke" stroke-width="2" stroke="rgb(119,119,119)" stroke-linejoin="miter" stroke-linecap="square" stroke-miterlimit="2"/><rect x="25" y="261.215" width="30" height="28.785" transform="matrix(1,0,0,1,0,0)" fill="none" vector-effect="non-scaling-stroke" stroke-width="2" stroke="rgb(119,119,119)" stroke-linejoin="miter" stroke-linecap="square" stroke-miterlimit="2"/><rect x="25" y="311.215" width="30" height="28.785" transform="matrix(1,0,0,1,0,0)" fill="none" vector-effect="non-scaling-stroke" stroke-width="2" stroke="rgb(119,119,119)" stroke-linejoin="miter" stroke-linecap="square" stroke-miterlimit="2"/></g></svg>